<?xml version="1.0" standalone="no"?>
<!DOCTYPE svg PUBLIC "-//W3C//DTD SVG 20010904//EN"
 "http://www.w3.org/TR/2001/REC-SVG-20010904/DTD/svg10.dtd">
<svg version="1.0" xmlns="http://www.w3.org/2000/svg"
 width="900.000000pt" height="1314.000000pt" viewBox="0 0 900.000000 1314.000000"
 preserveAspectRatio="xMidYMid meet">

<g transform="translate(0.000000,1314.000000) scale(0.100000,-0.100000)"
fill="#000000" stroke="none">
<path d="M2605 12671 c8 -68 56 -220 101 -319 19 -41 34 -78 34 -83 0 -4 -19
-13 -42 -20 -24 -6 -62 -18 -86 -26 -41 -14 -44 -14 -81 10 -97 64 -323 155
-429 172 l-37 6 25 -21 c33 -30 133 -87 270 -155 63 -31 117 -59 119 -61 3 -3
-28 -34 -68 -71 -213 -194 -304 -427 -241 -614 42 -123 110 -206 303 -367 177
-148 252 -228 298 -317 44 -84 55 -132 69 -290 5 -66 13 -131 17 -144 3 -14 2
-22 -3 -19 -5 4 -47 32 -94 63 -183 122 -358 184 -480 170 -119 -13 -208 -63
-246 -138 -31 -59 -35 -200 -8 -271 5 -14 -3 -16 -67 -16 -89 0 -180 -30 -262
-84 -152 -101 -358 -385 -402 -553 -19 -72 -19 -203 -1 -247 35 -84 134 -156
286 -206 89 -30 96 -31 157 -20 69 13 183 64 239 106 19 15 37 24 41 21 17
-18 -245 -500 -427 -782 -115 -179 -100 -158 -352 -505 -216 -299 -291 -410
-418 -620 -170 -282 -266 -511 -296 -712 -62 -409 196 -737 640 -814 191 -34
453 -4 641 73 209 85 403 275 565 551 34 59 84 143 110 187 71 118 104 189
144 305 104 297 154 624 165 1062 l6 267 132 -387 c124 -364 332 -964 528
-1523 l86 -246 -49 -79 c-27 -43 -82 -140 -122 -214 -40 -74 -111 -198 -158
-275 -127 -208 -138 -235 -103 -235 27 0 51 -10 51 -21 0 -20 -44 -69 -62 -69
-9 0 -40 9 -68 20 -56 22 -101 25 -130 10 -18 -10 -27 -36 -174 -501 -31 -97
-69 -209 -85 -248 l-29 -72 31 -20 c18 -10 48 -22 68 -25 61 -10 62 -13 44
-90 -22 -99 -73 -250 -106 -316 -21 -41 -44 -69 -82 -96 -69 -51 -113 -103
-122 -141 -9 -40 19 -89 62 -110 36 -18 39 -27 18 -55 -16 -21 1 -32 -233 152
-37 29 -89 66 -117 82 -49 28 -51 31 -84 127 -81 234 -153 317 -299 343 -101
18 -159 -7 -240 -104 -49 -57 -96 -149 -111 -216 -15 -66 -13 -218 4 -284 l15
-57 -74 -95 c-41 -52 -86 -104 -101 -116 -24 -19 -31 -20 -68 -9 -41 12 -62
23 -219 114 -74 42 -80 44 -125 36 -26 -5 -52 -14 -57 -19 -6 -6 -12 -52 -14
-104 -4 -86 -2 -99 23 -153 14 -32 42 -107 62 -168 19 -60 46 -131 59 -156
l23 -46 -60 -89 c-131 -195 -164 -296 -139 -428 29 -157 125 -222 267 -181 32
9 68 23 81 31 28 18 95 152 124 249 l20 70 17 -25 c56 -84 127 -128 225 -137
58 -5 69 -3 109 20 26 15 64 52 89 86 l43 59 90 -5 91 -6 46 52 c67 75 91 143
91 261 1 69 -6 118 -22 178 -14 47 -20 87 -15 91 5 5 32 21 60 36 l50 28 65
-26 c35 -14 106 -33 157 -43 l92 -17 0 -66 c0 -36 11 -118 24 -181 14 -63 38
-180 55 -259 17 -80 33 -185 36 -235 4 -50 17 -138 30 -196 40 -174 113 -645
102 -656 -2 -2 -26 3 -53 11 -70 21 -89 19 -127 -15 -25 -22 -39 -46 -51 -91
-16 -55 -20 -60 -39 -55 -118 34 -615 18 -750 -24 -92 -28 -167 -98 -167 -153
0 -43 24 -69 78 -85 222 -66 722 -69 1347 -6 289 29 244 27 585 16 234 -8 272
-12 323 -31 276 -103 1233 -120 1744 -30 76 13 236 1 508 -41 105 -15 235 -33
290 -40 114 -12 216 -25 360 -46 66 -9 198 -14 391 -14 264 0 298 2 355 20 87
27 166 74 189 113 39 63 16 146 -51 186 -42 26 -161 57 -290 77 -110 17 -467
22 -610 9 l-74 -7 -22 75 c-14 46 -21 87 -17 105 7 36 -23 62 -73 62 l-33 0 6
78 c11 158 36 320 79 525 25 117 56 271 70 342 13 72 34 164 46 205 24 88 28
199 9 254 -13 39 -12 40 19 66 47 40 121 53 196 35 33 -8 81 -15 106 -15 l47
0 6 -57 c27 -225 160 -464 291 -519 57 -24 146 -22 191 5 20 12 38 20 40 18 2
-2 19 -47 39 -100 67 -187 123 -266 218 -308 62 -28 171 -31 227 -6 69 30 106
93 94 160 -5 35 -4 38 12 34 81 -22 163 -13 216 24 64 46 85 148 53 257 -20
65 -94 176 -183 272 l-69 74 29 46 c27 43 49 106 62 177 4 27 0 38 -27 67 -46
48 -75 53 -174 29 l-83 -20 -70 81 c-59 69 -67 82 -53 91 70 44 109 74 124 95
18 24 17 32 -41 318 -91 447 -106 501 -166 582 -107 146 -235 161 -325 38 -17
-24 -83 -146 -145 -273 -109 -221 -192 -353 -236 -376 -12 -6 -92 -11 -194
-12 l-174 -2 -103 157 c-56 87 -159 245 -229 350 -125 191 -126 193 -106 211
11 9 46 24 77 32 86 24 143 48 155 67 13 21 -31 113 -153 322 -44 76 -81 141
-81 143 0 3 -15 26 -33 52 -18 25 -73 111 -122 191 -112 183 -197 310 -223
333 -34 30 -95 39 -157 23 l-54 -14 -24 37 c-13 20 -40 71 -61 114 -26 54 -47
84 -67 95 -16 10 -29 21 -29 25 0 5 26 43 58 85 89 117 135 188 274 421 75
126 128 226 128 240 0 15 -15 100 -34 191 l-34 165 21 30 c133 184 183 282
221 435 29 117 25 159 -16 197 -42 38 -91 46 -242 40 -315 -14 -589 -123 -928
-368 -37 -27 -70 -49 -73 -49 -9 0 -122 232 -179 369 -73 173 -248 654 -346
951 -113 341 -212 661 -208 666 3 2 63 -17 134 -43 122 -44 135 -47 234 -47
l105 -1 85 45 c69 37 89 54 108 87 72 131 64 417 -15 553 -60 101 -210 226
-307 255 -135 40 -322 -6 -432 -107 -26 -24 -48 -37 -53 -32 -32 33 -50 251
-32 388 25 182 88 332 177 416 91 86 239 140 458 166 l58 7 -4 58 c-3 42 -15
81 -45 141 -23 46 -39 85 -37 87 6 7 142 -129 212 -211 31 -37 65 -68 74 -68
41 0 48 71 23 216 -20 110 -51 180 -104 233 l-41 41 24 48 c46 90 50 196 12
269 -8 16 -35 45 -61 67 -25 21 -44 40 -42 42 2 3 40 -7 83 -20 90 -29 160
-69 221 -129 39 -37 45 -39 68 -29 31 14 32 41 4 136 -29 96 -49 133 -101 182
-115 109 -248 182 -349 191 l-60 6 -26 51 c-37 74 -163 196 -243 235 -125 61
-205 71 -385 51 -192 -22 -332 -65 -446 -135 l-57 -35 -79 12 c-89 13 -473 17
-516 5 -31 -8 -30 -11 -174 308 -54 118 -54 119 -48 66z m1601 -312 c101 -32
199 -103 255 -186 l30 -43 -123 -1 -123 0 90 -30 c50 -16 126 -33 170 -38 201
-25 372 -118 457 -250 15 -25 28 -53 28 -64 0 -18 -1 -18 -27 1 -51 36 -187
99 -273 127 -72 24 -103 28 -202 29 -83 1 -121 -3 -130 -12 -18 -18 6 -32 58
-32 57 0 126 -38 223 -123 91 -81 105 -100 121 -172 9 -42 8 -53 -14 -101 -28
-61 -48 -68 -96 -33 -16 12 -66 32 -112 44 -46 13 -100 30 -120 39 -42 18 -60
6 -25 -17 12 -8 63 -35 112 -60 154 -77 279 -185 322 -279 21 -45 38 -128 26
-128 -3 0 -47 41 -96 91 -146 148 -303 255 -440 300 -72 23 -95 20 -58 -9 12
-9 77 -76 144 -148 100 -106 130 -145 163 -215 23 -46 45 -96 48 -111 6 -27 5
-28 -38 -28 -47 0 -209 -38 -266 -63 -51 -22 -192 -139 -241 -200 -40 -50 -99
-159 -99 -184 0 -6 -5 -15 -11 -19 -14 -9 -129 28 -129 41 0 33 46 192 81 282
39 98 40 105 24 123 -9 10 -30 24 -46 30 -38 16 -38 39 5 142 19 46 37 99 41
118 7 35 7 35 -13 17 -28 -25 -73 -19 -90 13 -18 35 -9 159 18 238 12 35 37
85 56 112 19 27 34 52 34 56 0 3 11 28 25 55 l24 49 -38 28 c-21 15 -57 34
-80 42 -28 9 -41 19 -41 31 0 27 63 85 129 119 64 32 94 57 86 70 -3 5 -19 7
-34 4 -29 -6 -70 13 -211 102 -30 19 -110 57 -177 86 -68 28 -123 55 -123 59
0 11 168 64 268 84 118 24 279 42 332 37 25 -2 72 -12 106 -23z m-892 -149
c55 -8 268 -82 366 -128 83 -38 200 -107 200 -117 0 -7 -22 -27 -50 -45 -58
-37 -100 -84 -100 -111 0 -22 53 -59 120 -85 25 -9 46 -18 48 -20 2 -1 -23
-51 -57 -111 -78 -140 -103 -217 -104 -314 -1 -89 14 -120 68 -146 19 -9 35
-22 35 -28 0 -6 -16 -50 -35 -98 -19 -48 -35 -93 -35 -101 0 -22 40 -66 61
-66 24 0 24 6 -6 -75 -35 -93 -71 -240 -89 -365 -18 -122 -8 -343 18 -445 23
-85 91 -219 127 -249 28 -24 30 -29 20 -57 -12 -35 -7 -49 17 -49 28 1 75 49
150 151 39 53 85 105 104 117 60 37 182 72 250 72 90 -1 136 -25 238 -128 140
-140 195 -283 170 -439 -15 -92 -35 -122 -103 -157 -129 -66 -322 -41 -605 80
-96 41 -182 58 -182 36 0 -16 45 -51 92 -72 l47 -21 35 -107 c19 -59 60 -200
90 -315 31 -114 74 -256 96 -315 21 -59 63 -174 93 -257 132 -365 254 -665
517 -1270 101 -231 193 -448 206 -483 12 -35 28 -70 34 -78 17 -20 2 -37 -279
-329 -304 -315 -312 -322 -571 -530 -118 -95 -244 -203 -280 -239 -35 -36 -68
-66 -72 -66 -3 0 -10 10 -14 23 -3 12 -42 101 -85 198 -43 97 -122 292 -175
435 -119 323 -436 1202 -457 1269 -86 275 -302 925 -352 1055 -48 126 -68 195
-85 292 -31 186 -99 433 -114 417 -2 -2 2 -92 10 -199 50 -745 46 -1025 -22
-1400 -98 -539 -314 -965 -649 -1277 -72 -68 -108 -93 -199 -137 -137 -67
-280 -115 -367 -123 -73 -6 -240 10 -326 33 -200 52 -364 167 -423 297 -118
261 -82 566 116 959 73 145 454 707 692 1020 92 120 186 264 252 387 31 58 87
158 124 221 116 200 260 496 260 538 1 29 17 61 71 143 39 58 77 125 85 150 7
24 15 46 16 48 2 2 58 -49 126 -112 175 -165 259 -229 373 -287 100 -51 201
-79 281 -80 85 0 214 62 214 105 0 20 -8 19 -47 -4 -80 -49 -237 -32 -388 43
-93 46 -169 96 -146 96 7 0 59 -9 114 -21 167 -34 253 -16 354 75 58 52 100
127 109 197 8 57 -18 190 -53 273 -39 94 -123 213 -217 306 l-86 85 0 55 c0
100 -32 354 -52 415 -43 132 -160 271 -381 458 -191 160 -268 278 -275 417 -4
73 -2 78 41 162 81 157 171 264 267 313 25 13 30 12 66 -12 21 -14 58 -43 81
-65 47 -42 60 -46 70 -21 5 12 -12 33 -62 78 l-68 61 79 28 78 28 16 -23 c8
-12 36 -44 62 -71 36 -36 55 -48 78 -48 56 0 32 58 -39 95 -34 17 -58 53 -44
65 4 5 26 11 48 13 59 7 329 -2 409 -13z m-938 -1721 c275 -50 729 -461 823
-746 39 -116 25 -202 -43 -261 -67 -58 -112 -75 -199 -74 -222 3 -429 94 -596
263 -84 84 -124 154 -174 306 -58 174 -80 286 -75 369 3 56 8 69 35 96 29 29
99 56 149 57 11 1 47 -4 80 -10z m1532 -99 c24 -11 42 -26 42 -35 0 -19 -28
-75 -37 -75 -7 0 -95 31 -101 36 -2 1 0 23 3 48 8 54 23 58 93 26z m4 -211 c3
-60 3 -60 -22 -54 -14 3 -37 9 -52 12 -25 5 -28 9 -28 47 0 24 3 46 7 49 3 4
25 7 49 7 l42 0 4 -61z m-1852 -149 c11 -30 19 -56 20 -56 0 -1 -42 -5 -92 -9
-120 -8 -247 -31 -312 -56 -28 -10 -53 -19 -55 -19 -12 0 51 57 105 96 93 67
198 105 277 101 37 -2 39 -4 57 -57z m1851 30 c15 -8 19 -22 19 -60 l0 -50
-49 0 c-46 0 -49 1 -55 31 -10 53 -7 77 12 82 31 8 53 7 73 -3z m-1749 -234
c21 -38 54 -89 74 -113 l37 -44 -39 -86 c-97 -219 -237 -360 -428 -434 -69
-26 -90 -31 -142 -26 -106 8 -262 96 -290 163 -17 40 -18 124 -3 193 13 62 81
199 134 269 35 47 47 55 105 72 155 46 352 79 450 77 l65 -2 37 -69z m1795 35
c2 -9 9 -24 14 -33 14 -28 11 -48 -15 -79 -29 -34 -32 -31 -75 61 l-31 65 32
5 c43 7 69 1 75 -19z m3780 -5568 c24 -27 42 -64 64 -133 29 -92 149 -668 149
-715 0 -12 -8 -33 -19 -46 -16 -20 -29 -23 -108 -27 -107 -5 -170 11 -249 64
-62 42 -74 66 -74 147 0 78 20 156 69 272 37 85 38 90 22 112 -9 12 -22 23
-29 23 -31 0 -152 -318 -152 -401 0 -18 -3 -18 -48 5 -26 13 -75 32 -107 41
-33 10 -61 19 -63 20 -2 2 32 50 76 107 89 118 138 201 176 304 28 75 83 174
118 211 27 29 77 52 112 53 20 0 38 -11 63 -37z m-1475 -30 c108 -138 398
-590 398 -620 0 -10 -167 -50 -174 -42 -2 2 -73 123 -158 269 -86 146 -172
292 -192 325 -20 33 -36 65 -36 71 0 12 77 52 101 53 9 1 36 -25 61 -56z
m-3363 -9 l59 -17 -5 -36 c-10 -67 -47 -125 -135 -213 -48 -49 -91 -88 -95
-88 -7 0 107 369 115 370 1 0 29 -7 61 -16z m-1073 -138 c94 -44 157 -129 190
-257 17 -66 15 -71 -31 -87 -16 -5 -38 -13 -47 -17 -13 -5 -23 6 -47 52 -16
32 -36 67 -44 78 -26 33 -31 8 -10 -42 26 -60 46 -200 37 -250 -20 -114 -97
-161 -213 -133 -67 16 -133 74 -150 131 -47 157 -12 302 111 467 62 84 116 99
204 58z m303 -443 c36 -20 83 -53 105 -73 23 -20 76 -62 119 -94 43 -32 89
-73 102 -91 24 -30 24 -35 14 -89 -14 -66 -3 -65 -148 -4 -51 22 -116 43 -145
48 -28 4 -60 11 -70 15 -14 6 -17 5 -12 -3 8 -14 117 -69 201 -102 63 -25 112
-54 132 -80 17 -21 26 -66 18 -90 -13 -42 -130 -20 -302 59 -60 28 -114 51
-118 51 -5 0 6 -16 25 -35 32 -33 33 -35 16 -54 -10 -10 -30 -24 -46 -31 -26
-11 -31 -9 -72 32 -47 48 -116 86 -171 95 -50 8 -170 -30 -195 -62 -19 -24
-21 -24 -56 -10 -19 8 -55 15 -78 15 -53 0 -137 -38 -166 -75 -26 -33 -48
-106 -58 -190 -9 -79 -18 -95 -54 -95 -63 0 -97 28 -144 119 -72 139 -128 272
-142 336 -17 76 -17 97 -1 119 12 17 18 15 82 -24 38 -23 102 -59 143 -80 41
-20 70 -40 65 -43 -11 -7 -111 16 -142 32 -58 32 -26 -39 34 -75 22 -13 63
-29 91 -35 48 -11 53 -10 83 12 18 13 78 81 134 152 55 70 106 127 112 127 7
0 48 -17 91 -37 65 -30 91 -37 145 -37 58 -1 70 2 105 29 21 16 47 39 56 50
27 32 48 104 48 165 0 108 68 126 199 53z m5098 -98 c33 -8 91 -26 127 -41 58
-23 68 -31 84 -68 49 -109 233 -206 369 -194 35 3 37 1 84 -77 27 -44 49 -86
49 -92 0 -7 -12 -13 -27 -13 -36 0 -61 -16 -48 -29 6 -5 29 -14 53 -19 42 -10
72 -6 218 29 63 15 104 6 104 -21 0 -32 -45 -123 -80 -163 -72 -83 -185 -117
-274 -83 -62 24 -73 40 -79 125 -5 55 -14 92 -37 137 -61 124 -142 165 -261
129 l-59 -18 -76 72 c-53 51 -79 70 -87 62 -7 -7 8 -32 48 -83 33 -40 63 -79
68 -86 7 -9 3 -20 -13 -37 -13 -14 -27 -25 -32 -25 -7 0 -160 122 -260 208
-10 8 -24 12 -32 9 -11 -4 27 -47 125 -144 131 -128 140 -140 135 -168 -4 -16
-10 -33 -15 -38 -5 -5 -76 32 -160 83 -84 50 -171 98 -194 106 -23 8 -66 28
-95 45 -82 46 -82 30 0 -33 41 -32 83 -67 93 -78 l19 -21 -29 7 c-17 4 -88 24
-159 45 -71 21 -145 42 -165 45 l-36 7 23 -26 c13 -14 50 -39 83 -57 32 -17
59 -33 59 -35 0 -2 -35 -28 -79 -58 -138 -98 -260 -227 -315 -334 -21 -41 -45
-42 -89 -3 -27 23 -46 59 -83 153 -59 150 -84 230 -84 266 0 23 16 40 88 98
113 91 134 105 220 148 82 41 179 65 265 65 43 0 57 3 54 13 -3 9 -33 12 -108
11 -90 -1 -115 -5 -187 -32 -94 -35 -179 -84 -269 -154 -35 -26 -67 -48 -73
-48 -11 0 -13 51 -4 100 12 58 198 176 376 239 216 75 604 114 765 76z m-4467
-121 c105 -28 162 -37 257 -41 121 -6 122 -6 111 -27 -6 -11 -65 -104 -131
-206 -155 -239 -227 -356 -227 -367 0 -5 91 -97 203 -205 161 -155 217 -217
271 -295 66 -99 106 -193 106 -254 0 -17 5 -29 13 -29 14 1 69 42 157 120 l62
54 -6 -54 c-10 -77 -48 -233 -101 -416 -25 -86 -45 -162 -45 -170 0 -7 26 -53
58 -101 31 -49 68 -109 82 -136 30 -56 50 -60 102 -17 l37 30 5 -42 c3 -24 7
-76 9 -115 l4 -73 -96 0 c-110 0 -376 23 -531 46 -189 28 -360 70 -503 124
l-57 22 22 39 c16 29 26 37 42 34 12 -2 56 -12 99 -21 43 -9 81 -14 84 -11 7
7 -14 160 -27 201 -5 17 -26 141 -45 276 -20 135 -47 304 -60 375 -12 72 -26
168 -29 215 -3 47 -24 186 -47 310 -63 347 -65 526 -8 640 10 19 21 56 24 83
4 26 12 47 19 47 6 0 72 -16 146 -36z m3440 26 c0 -5 -4 -10 -9 -10 -5 0 -32
-22 -60 -49 -28 -27 -53 -45 -56 -40 -4 5 -19 9 -34 9 -25 0 -29 -5 -35 -37
-3 -21 -6 -90 -6 -154 0 -115 1 -118 59 -297 33 -99 69 -199 81 -222 54 -106
166 -184 256 -178 36 2 49 7 49 18 0 8 -10 16 -22 18 -71 10 -43 64 101 198
123 113 126 114 126 71 0 -53 -26 -188 -65 -342 -20 -77 -41 -187 -46 -245 -6
-58 -14 -123 -20 -145 -57 -237 -74 -342 -93 -592 -5 -65 -4 -75 14 -93 12
-12 29 -19 38 -16 62 18 69 18 76 -6 10 -37 7 -75 -6 -86 -20 -15 -240 -90
-362 -122 -176 -46 -575 -104 -936 -135 -562 -49 -1076 -31 -1369 48 l-83 22
1 163 c1 90 6 173 10 185 5 13 41 46 80 76 39 29 82 67 96 85 25 32 25 34 9
72 -9 21 -26 88 -39 147 l-22 108 46 -5 c25 -3 105 -13 176 -22 72 -8 227 -31
345 -49 265 -42 349 -51 335 -37 -18 17 -226 82 -284 88 -31 3 -78 12 -106 19
-27 8 -86 19 -130 24 -65 7 -341 61 -392 77 -7 2 -13 12 -13 23 0 16 10 20 63
25 34 4 98 11 142 16 44 5 137 12 207 15 70 3 158 12 195 20 38 8 71 15 76 15
4 0 7 4 7 9 0 19 -65 23 -198 11 -85 -7 -158 -8 -192 -3 -30 5 -77 5 -105 1
-148 -21 -181 -22 -189 -2 -10 25 -20 275 -13 306 5 19 51 50 203 138 108 63
199 120 201 127 7 17 -26 106 -95 258 -55 122 -114 267 -109 271 1 1 45 -9 97
-22 151 -39 298 -41 575 -10 624 72 981 144 1178 237 55 26 73 29 155 29 55 0
92 -4 92 -10z m-4383 -351 c62 -30 129 -110 144 -173 17 -68 17 -258 1 -321
-19 -75 -40 -98 -91 -97 -65 1 -124 37 -171 103 -89 127 -127 249 -110 354 11
66 38 108 88 135 48 25 86 25 139 -1z m5833 -29 c16 -11 41 -46 56 -76 23 -48
27 -68 27 -143 0 -141 -49 -284 -123 -362 -41 -43 -131 -75 -184 -65 -49 9
-109 67 -149 143 -29 57 -107 277 -107 305 0 4 32 -8 71 -28 l72 -36 -7 -87
c-6 -79 -4 -91 13 -112 27 -33 40 -17 52 67 44 301 56 337 127 384 55 36 110
40 152 10z m-6143 -32 c9 -7 11 -33 7 -97 -10 -135 28 -254 122 -382 45 -60
45 -61 30 -92 -16 -35 -58 -78 -93 -96 -39 -20 -106 -13 -143 14 -47 34 -94
104 -116 172 -21 64 -26 256 -11 366 17 116 128 179 204 115z m-439 -315 c26
-15 38 -16 84 -6 29 6 56 8 59 5 13 -15 30 -182 20 -201 -6 -10 -29 -70 -51
-131 -80 -227 -143 -283 -250 -228 -86 44 -114 125 -86 250 13 57 34 102 93
201 42 70 82 127 89 127 7 0 26 -8 42 -17z m7122 10 c0 -5 34 -51 75 -103 85
-107 131 -190 140 -254 13 -86 -42 -146 -134 -146 -65 0 -99 38 -179 203 -39
78 -86 165 -106 192 l-36 50 82 13 c45 7 96 21 113 32 33 20 45 24 45 13z
m-360 -13 c37 -20 142 -228 240 -474 l51 -128 -21 -43 c-33 -68 -82 -81 -165
-41 -100 47 -155 126 -215 312 l-33 101 45 104 c25 57 51 121 58 142 13 41 13
41 40 27z"/>
<path d="M4283 9721 c-51 -24 -116 -89 -154 -156 -34 -59 -36 -81 -9 -90 26
-8 44 6 77 63 26 43 27 44 67 38 111 -18 201 -18 240 -2 38 16 39 16 73 -14
18 -17 44 -30 56 -30 21 1 20 2 -9 28 -17 15 -51 53 -74 85 -25 33 -60 67 -81
78 -49 25 -131 25 -186 0z m143 -66 c66 -27 11 -45 -88 -29 -47 8 -49 20 -5
33 46 13 53 13 93 -4z"/>
<path d="M2261 6917 c-14 -17 -4 -27 27 -27 18 0 23 4 18 16 -3 9 -6 18 -6 20
0 10 -28 3 -39 -9z"/>
<path d="M2241 6742 c-7 -13 -15 -54 -18 -92 -5 -59 -3 -71 11 -76 9 -3 23 -1
31 6 19 16 20 112 1 155 l-13 30 -12 -23z"/>
<path d="M3796 6685 c-38 -8 -73 -18 -78 -23 -19 -19 51 -31 177 -30 141 1
262 -19 405 -66 l75 -25 -39 34 c-48 43 -121 79 -201 100 -84 23 -254 28 -339
10z"/>
<path d="M2095 6513 c-9 -43 -20 -90 -25 -105 -10 -32 8 -62 35 -57 13 3 24
20 34 51 12 40 12 58 2 118 -7 38 -17 70 -21 70 -5 0 -16 -35 -25 -77z"/>
<path d="M1926 6382 c-3 -5 -9 -43 -14 -84 -6 -42 -18 -90 -28 -108 -19 -31
-19 -32 1 -46 25 -19 35 -15 57 26 26 49 24 220 -3 220 -4 0 -10 -4 -13 -8z"/>
<path d="M2275 10415 c-30 -30 -32 -64 -4 -99 26 -33 79 -36 109 -6 30 30 27
83 -6 109 -35 28 -69 26 -99 -4z"/>
<path d="M1980 9827 c-52 -27 -52 -105 1 -133 73 -37 144 52 92 114 -23 28
-62 35 -93 19z"/>
<path d="M1978 11013 c93 -112 197 -194 309 -245 72 -32 93 -31 93 6 0 20 -16
33 -92 76 -51 29 -147 88 -214 131 -66 44 -124 79 -128 79 -4 0 10 -21 32 -47z"/>
<path d="M1718 10875 c-9 -27 -27 -84 -39 -125 -11 -41 -32 -96 -45 -123 -19
-37 -22 -52 -14 -67 20 -38 68 -14 101 52 23 44 53 184 43 200 -4 6 -12 34
-18 62 l-12 51 -16 -50z"/>
</g>
</svg>
